<svg width="10" height="14" viewBox="0 0 10 14" fill="none" xmlns="http://www.w3.org/2000/svg">
<path d="M7.25991 7L5.74991 6.47V3.08H6.10991C6.91991 3.08 7.57991 3.79 7.57991 4.66C7.57991 5.07 7.91991 5.41 8.32991 5.41C8.73991 5.41 9.07991 5.07 9.07991 4.66C9.07991 2.96 7.74991 1.58 6.10991 1.58H5.74991V1C5.74991 0.59 5.40991 0.25 4.99991 0.25C4.58991 0.25 4.24991 0.59 4.24991 1V1.58H3.59991C2.11991 1.58 0.909912 2.83 0.909912 4.36C0.909912 6.15 1.94991 6.72 2.73991 7L4.24991 7.53V10.91H3.88991C3.07991 10.91 2.41991 10.2 2.41991 9.33C2.41991 8.92 2.07991 8.58 1.66991 8.58C1.25991 8.58 0.919912 8.92 0.919912 9.33C0.919912 11.03 2.24991 12.41 3.88991 12.41H4.24991V13C4.24991 13.41 4.58991 13.75 4.99991 13.75C5.40991 13.75 5.74991 13.41 5.74991 13V12.42H6.39991C7.87991 12.42 9.08991 11.17 9.08991 9.64C9.07991 7.84 8.03991 7.27 7.25991 7ZM3.23991 5.59C2.72991 5.41 2.41991 5.24 2.41991 4.37C2.41991 3.66 2.94991 3.09 3.60991 3.09H4.25991V5.95L3.23991 5.59ZM6.39991 10.92H5.74991V8.06L6.75991 8.41C7.26991 8.59 7.57991 8.76 7.57991 9.63C7.57991 10.34 7.04991 10.92 6.39991 10.92Z" fill="white"/>
</svg>
