<svg xmlns="http://www.w3.org/2000/svg" width="43" height="42" viewBox="0 0 43 42" fill="none">
  <path fill-rule="evenodd" clip-rule="evenodd" d="M0.292969 20.9982C0.292969 9.40113 9.69429 -0.000201294 21.2914 -0.000201294C32.8885 -0.000201294 42.2899 9.40113 42.2899 20.9982C42.2899 32.5954 32.8885 41.9967 21.2914 41.9967C9.69429 41.9967 0.292969 32.5954 0.292969 20.9982Z" fill="#40D589"/>
  <path d="M26.9999 22.9005H27.4999V22.4005V20.6822V20.1822H26.9999H21.9155V15.0978V14.5978H21.4155H19.6972H19.1972V15.0978V20.1822H14.1128H13.6128V20.6822V22.4005V22.9005H14.1128H19.1972V27.9849V28.4849H19.6972H21.4155H21.9155V27.9849V22.9005H26.9999Z" fill="white" stroke="white"/>
  <path fill-rule="evenodd" clip-rule="evenodd" d="M0.292969 20.9982C0.292969 9.40113 9.69429 -0.000201294 21.2914 -0.000201294C32.8885 -0.000201294 42.2899 9.40113 42.2899 20.9982C42.2899 32.5954 32.8885 41.9967 21.2914 41.9967C9.69429 41.9967 0.292969 32.5954 0.292969 20.9982Z" fill="#40D589"/>
  <rect x="13.293" y="20" width="15" height="3" fill="white"/>
</svg>